<?xml version="1.0" encoding="utf-8"?>
<!-- Generator: Adobe Illustrator 22.1.0, SVG Export Plug-In . SVG Version: 6.00 Build 0)  -->
<svg version="1.1" id="Layer_1" xmlns="http://www.w3.org/2000/svg" xmlns:xlink="http://www.w3.org/1999/xlink" x="0px" y="0px"
	 viewBox="0 0 60 60" style="enable-background:new 0 0 60 60;" xml:space="preserve">
<style type="text/css">
	.st0{fill:#FFFFFF;}
	.st1{fill:#0071BC;}
</style>
<g>
	<polygon class="st0" points="44.1,12.7 38.4,12.7 35.7,17.6 31.6,25 37.3,25 	"/>
	<polygon class="st0" points="34.1,30.8 32.8,30.8 33.5,31.9 	"/>
	<polygon class="st0" points="20.2,25 13.5,12.7 7.8,12.7 14.5,24.9 14.8,25.4 14.6,25 	"/>
	<polygon class="st0" points="17.8,30.8 17.8,30.7 25.9,45.6 28.8,40.5 23.4,30.8 	"/>
	<polygon class="st0" points="17.7,30.6 17.8,30.7 17.7,30.6 	"/>
	<polygon class="st0" points="45.9,23 45.9,12.7 41.4,20.9 39.1,25 44.8,25 	"/>
	<polygon class="st0" points="33.5,35.3 31,30.8 25.3,30.8 33.5,45.6 41.6,30.8 36,30.8 	"/>
	<polygon class="st0" points="23.7,17.6 21,12.7 15.4,12.7 19.9,20.9 22.1,25 27.8,25 	"/>
	<polygon class="st0" points="46.6,25.7 46.6,25.7 46.6,25.8 46.7,25.8 46.7,25.7 46.7,25.7 	"/>
</g>
<polygon class="st1" points="52,25.6 51.1,25.6 51.1,12.6 46.7,12.6 46.7,24.8 46.7,24.8 46.7,25 46.7,25.5 46.7,25.7 46.7,25.8 
	46.6,25.8 46.6,25.7 45.9,25.7 15,25.7 15.7,27 17.3,29.9 22,29.9 30.5,29.9 30.7,29.9 45.9,29.9 46.7,29.9 46.7,30.4 46.7,30.4 
	46.7,30.4 46.7,30.8 46.7,30.8 46.7,31.2 46.7,45.3 47,45.3 51,45.3 51.1,45.3 51.1,29.9 52,29.9 52,29.9 52,29.9 67,29.9 67,25.6 
	"/>
</svg>
